<?xml version="1.0" encoding="utf-8"?>
<!-- Generator: Adobe Illustrator 22.0.0, SVG Export Plug-In . SVG Version: 6.00 Build 0)  -->
<svg version="1.1" xmlns="http://www.w3.org/2000/svg" xmlns:xlink="http://www.w3.org/1999/xlink" x="0px" y="0px"
	 viewBox="0 0 515.9 390.5" style="enable-background:new 0 0 515.9 390.5;" xml:space="preserve">
<style type="text/css">
	.st0{fill:#193154;}
	.st1{fill:#48B1E5;}
	.st2{fill:#FFFFFF;}
</style>
<g id="Capa_2">
	<rect x="539" width="515.9" height="390.5"/>
</g>
<g id="Capa_1">
	<g>
		<path d="M1201.3,240.9h13.4l10,31.7h0.1l10-31.7h13.4v41.9h-8v-34.6h-0.1l-11.3,34.6h-8l-11.3-34.6l-0.1,0.1v34.4h-8V240.9z"/>
		<path d="M1257.4,238.6h8v7.7h-8V238.6z M1257.4,251.9h8v30.9h-8V251.9z"/>
		<path d="M1276.5,257.8h-5.9v-5.9h5.9v-6.2l8-2.6v8.8h7.1v5.9h-7.1v14.4c0,2.6,0.7,5.1,3.8,5.1c1.4,0,2.8-0.3,3.7-0.8l0.2,6.4
			c-1.7,0.5-3.5,0.7-5.9,0.7c-6.3,0-9.8-3.9-9.8-10V257.8z"/>
		<path d="M1311.4,251.2c9.2,0,16.2,6.2,16.2,16.4c0,8.9-5.9,16-16.2,16c-10.2,0-16.1-7.1-16.1-16
			C1295.3,257.3,1302.3,251.2,1311.4,251.2z M1311.4,277.3c6.2,0,7.8-5.5,7.8-10.7c0-4.7-2.5-9.2-7.8-9.2c-5.2,0-7.7,4.6-7.7,9.2
			C1303.7,271.7,1305.3,277.3,1311.4,277.3z"/>
		<path d="M1365.1,282.2c-3.1,0.7-6.4,1.3-9.5,1.3c-13.6,0-23-6.8-23-20.9c0-14.3,8.8-22.4,23-22.4c2.8,0,6.4,0.5,9.5,1.7l-0.6,7.1
			c-3.2-1.8-6.1-2.2-9.1-2.2c-8.6,0-14,6.6-14,15.2c0,8.5,5.3,14.9,14.2,14.9c3.3,0,7.2-0.7,9.2-1.7L1365.1,282.2z"/>
		<path d="M1384.7,251.2c9.2,0,16.2,6.2,16.2,16.4c0,8.9-5.9,16-16.2,16c-10.2,0-16.1-7.1-16.1-16
			C1368.6,257.3,1375.6,251.2,1384.7,251.2z M1384.7,277.3c6.2,0,7.8-5.5,7.8-10.7c0-4.7-2.5-9.2-7.8-9.2c-5.2,0-7.7,4.6-7.7,9.2
			C1377,271.7,1378.6,277.3,1384.7,277.3z"/>
		<path d="M1427.8,279.3h-0.1c-2.4,3-5.7,4.2-9.5,4.2c-9.5,0-13-7.8-13-16.3c0-8.5,3.5-16.1,13-16.1c4,0,6.8,1.4,9.2,4.3h0.1v-17.7
			h8v45h-7.8V279.3z M1420.4,277.3c5.3,0,7.1-5.6,7.1-10c0-4.3-2-9.8-7.2-9.8c-5.2,0-6.7,5.7-6.7,9.8
			C1413.6,271.5,1415.1,277.3,1420.4,277.3z"/>
		<path d="M1468.7,281c-2.9,1.6-6.3,2.5-10.6,2.5c-10.2,0-16.1-5.9-16.1-16c0-8.9,4.7-16.3,14.3-16.3c11.5,0,14.7,7.9,14.7,18.7
			h-21.4c0.4,5,3.8,7.8,8.8,7.8c3.9,0,7.3-1.4,10.3-3.1V281z M1463.3,264.3c-0.2-3.9-2-7.3-6.5-7.3c-4.5,0-6.8,3.1-7.1,7.3H1463.3z"
			/>
	</g>
	<g>
		<path d="M1438.7,114.2c-5.9,5.9-11.8,11.8-17.9,17.8c-7.7-8.6-17.4-13.3-29.2-13.1c-11.8,0.2-21.2,5.3-28.9,14.6
			c0-0.7,0-1.1,0-1.5c0-9.9,0-19.8,0-29.6c0-0.9,0.2-1.5,1.1-1.9c4.8-2.5,9.8-4.3,15.1-5.4c7-1.5,14-1.9,21.1-0.9
			c15.2,2.1,28.1,8.7,38.5,20C1438.6,114.1,1438.6,114.2,1438.7,114.2z"/>
		<g>
			<path d="M1329.8,140c0.1,6.2,0.1,12.4,0.2,18.6c0.1,6.7,1.5,13.1,3.8,19.3c2,5.5,4.8,10.6,8.2,15.2l14.5-28.8
				c-0.5-2.9-0.7-5.9-0.8-8.8c-0.1-17.2,0-34.5,0-51.7c0-2,0-3.9,0-5.9c0-0.7-0.2-1-1-1c-1,0-2,0-3,0c-7.6,0-15.3,0-22.9,0
				c-0.5,0-1.4,0.2-1.6,0.6c-3.9,6.1-7.7,12.3-11.5,18.5c-5.9,9.4-11.7,18.9-17.6,28.3c-0.5,0.8-1.1,1.7-1.7,2.6
				c-2.1-3.3-4-6.4-5.9-9.5c-4.7-7.5-9.3-15-14-22.5c-3.5-5.7-7.1-11.4-10.6-17.1c-0.4-0.7-0.9-1-1.7-1c-8.6,0-17.2,0-25.8,0
				c-0.4,0-0.7,0.1-1.1,0.1c0,39.5,0,78.9,0,118.4c0.6,0,1.1,0,1.6,0c7.4,0,14.8,0,22.2,0c1.6,0,1.6,0,1.6-1.6c0-24.5,0-49,0-73.4
				c0-0.5,0.1-1,0.1-1.4c2.4,3.3,4.5,6.6,6.7,9.8c3.6,5.5,7.3,11,10.9,16.5c5,7.5,9.9,15,14.9,22.5c0.7,1.1,1,1.1,1.7,0
				c4.2-6.4,8.4-12.7,12.6-19.1c4.4-6.8,8.9-13.5,13.3-20.3c2.2-3.3,4.4-6.6,6.8-10.2C1329.7,139,1329.8,139.5,1329.8,140z"/>
			<path d="M1420.8,180.2c-0.3,0.2-0.5,0.4-0.7,0.6c-6.6,7.4-14.9,11.6-24.9,12.4c-6.3,0.5-12.4-0.1-18.2-3.1
				c-5.4-2.8-10.1-6.2-13.9-10.9c-1.3-1.6-2.4-3.3-3.4-5.1l-12.6,25.1c6.4,6.7,13.9,11.8,22.5,15.2c5.1,2,10.4,3.3,15.9,3.9
				c8.8,1,17.5,0.1,25.9-2.6c4.8-1.5,9.3-3.6,13.6-6.3c5.1-3.1,9.7-6.9,13.7-11.4C1432.7,192.1,1426.8,186.2,1420.8,180.2z"/>
		</g>
	</g>
	<g>
		<g>
			<path class="st0" d="M660.3,682.9h13.4l10,31.7h0.1l10-31.7h13.4v41.9h-8v-34.6h-0.1l-11.3,34.6h-8l-11.3-34.6l-0.1,0.1v34.4h-8
				V682.9z"/>
			<path class="st0" d="M716.4,680.6h8v7.7h-8V680.6z M716.4,693.9h8v30.9h-8V693.9z"/>
			<path class="st0" d="M735.5,699.8h-5.9v-5.9h5.9v-6.2l8-2.6v8.8h7.1v5.9h-7.1v14.4c0,2.6,0.7,5.1,3.8,5.1c1.4,0,2.8-0.3,3.7-0.8
				l0.2,6.4c-1.7,0.5-3.5,0.7-5.9,0.7c-6.3,0-9.8-3.9-9.8-10V699.8z"/>
			<path class="st0" d="M770.4,693.2c9.2,0,16.2,6.2,16.2,16.4c0,8.9-5.9,16-16.2,16c-10.2,0-16.1-7.1-16.1-16
				C754.3,699.3,761.3,693.2,770.4,693.2z M770.4,719.3c6.2,0,7.8-5.5,7.8-10.7c0-4.7-2.5-9.2-7.8-9.2c-5.2,0-7.7,4.6-7.7,9.2
				C762.7,713.7,764.3,719.3,770.4,719.3z"/>
			<path class="st0" d="M824.1,724.2c-3.1,0.7-6.4,1.3-9.5,1.3c-13.6,0-23-6.8-23-20.9c0-14.3,8.8-22.4,23-22.4
				c2.8,0,6.4,0.5,9.5,1.7l-0.6,7.1c-3.2-1.8-6.1-2.2-9.1-2.2c-8.6,0-14,6.6-14,15.2c0,8.5,5.3,14.9,14.2,14.9
				c3.3,0,7.2-0.7,9.2-1.7L824.1,724.2z"/>
			<path class="st0" d="M843.7,693.2c9.2,0,16.2,6.2,16.2,16.4c0,8.9-5.9,16-16.2,16c-10.2,0-16.1-7.1-16.1-16
				C827.6,699.3,834.6,693.2,843.7,693.2z M843.7,719.3c6.2,0,7.8-5.5,7.8-10.7c0-4.7-2.5-9.2-7.8-9.2c-5.2,0-7.7,4.6-7.7,9.2
				C836,713.7,837.6,719.3,843.7,719.3z"/>
			<path class="st0" d="M886.8,721.3h-0.1c-2.4,3-5.7,4.2-9.5,4.2c-9.5,0-13-7.8-13-16.3c0-8.5,3.5-16.1,13-16.1
				c4,0,6.8,1.4,9.2,4.3h0.1v-17.7h8v45h-7.8V721.3z M879.4,719.3c5.3,0,7.1-5.6,7.1-10c0-4.3-2-9.8-7.2-9.8c-5.2,0-6.7,5.7-6.7,9.8
				C872.6,713.5,874.1,719.3,879.4,719.3z"/>
			<path class="st0" d="M927.7,723c-2.9,1.6-6.3,2.5-10.6,2.5c-10.2,0-16.1-5.9-16.1-16c0-8.9,4.7-16.3,14.3-16.3
				c11.5,0,14.7,7.9,14.7,18.7h-21.4c0.4,5,3.8,7.8,8.8,7.8c3.9,0,7.3-1.4,10.3-3.1V723z M922.3,706.3c-0.2-3.9-2-7.3-6.5-7.3
				c-4.5,0-6.8,3.1-7.1,7.3H922.3z"/>
		</g>
	</g>
	<g>
		<g>
			<path class="st0" d="M897.7,556.2c-5.9,5.9-11.8,11.8-17.9,17.8c-7.7-8.6-17.4-13.3-29.2-13.1c-11.8,0.2-21.2,5.3-28.9,14.6
				c0-0.7,0-1.1,0-1.5c0-9.9,0-19.8,0-29.6c0-0.9,0.2-1.5,1.1-1.9c4.8-2.5,9.8-4.3,15.1-5.4c7-1.5,14-1.9,21.1-0.9
				c15.2,2.1,28.1,8.7,38.5,20C897.6,556.1,897.6,556.2,897.7,556.2z"/>
			<g>
				<path class="st0" d="M788.8,582c0.1,6.2,0.1,12.4,0.2,18.6c0.1,6.7,1.5,13.1,3.8,19.3c2,5.5,4.8,10.6,8.2,15.2l14.5-28.8
					c-0.5-2.9-0.7-5.9-0.8-8.8c-0.1-17.2,0-34.5,0-51.7c0-2,0-3.9,0-5.9c0-0.7-0.2-1-1-1c-1,0-2,0-3,0c-7.6,0-15.3,0-22.9,0
					c-0.5,0-1.4,0.2-1.6,0.6c-3.9,6.1-7.7,12.3-11.5,18.5c-5.9,9.4-11.7,18.9-17.6,28.3c-0.5,0.8-1.1,1.7-1.7,2.6
					c-2.1-3.3-4-6.4-5.9-9.5c-4.7-7.5-9.3-15-14-22.5c-3.5-5.7-7.1-11.4-10.6-17.1c-0.4-0.7-0.9-1-1.7-1c-8.6,0-17.2,0-25.8,0
					c-0.4,0-0.7,0.1-1.1,0.1c0,39.5,0,78.9,0,118.4c0.6,0,1.1,0,1.6,0c7.4,0,14.8,0,22.2,0c1.6,0,1.6,0,1.6-1.6c0-24.5,0-49,0-73.4
					c0-0.5,0.1-1,0.1-1.4c2.4,3.3,4.5,6.6,6.7,9.8c3.6,5.5,7.3,11,10.9,16.5c5,7.5,9.9,15,14.9,22.5c0.7,1.1,1,1.1,1.7,0
					c4.2-6.4,8.4-12.7,12.6-19.1c4.4-6.8,8.9-13.5,13.3-20.3c2.2-3.3,4.4-6.6,6.8-10.2C788.7,581,788.8,581.5,788.8,582z"/>
				<path class="st0" d="M879.8,622.2c-0.3,0.2-0.5,0.4-0.7,0.6c-6.6,7.4-14.9,11.6-24.9,12.4c-6.3,0.5-12.4-0.1-18.2-3.1
					c-5.4-2.8-10.1-6.2-13.9-10.9c-1.3-1.6-2.4-3.3-3.4-5.1l-12.6,25.1c6.4,6.7,13.9,11.8,22.5,15.2c5.1,2,10.4,3.3,15.9,3.9
					c8.8,1,17.5,0.1,25.9-2.6c4.8-1.5,9.3-3.6,13.6-6.3c5.1-3.1,9.7-6.9,13.7-11.4C891.7,634.1,885.8,628.2,879.8,622.2z"/>
			</g>
		</g>
	</g>
	<g>
		<g>
			<path class="st1" d="M121.3,682.9h13.4l10,31.7h0.1l10-31.7h13.4v41.9h-8v-34.6h-0.1l-11.3,34.6h-8l-11.3-34.6l-0.1,0.1v34.4h-8
				V682.9z"/>
			<path class="st1" d="M177.4,680.6h8v7.7h-8V680.6z M177.4,693.9h8v30.9h-8V693.9z"/>
			<path class="st1" d="M196.5,699.8h-5.9v-5.9h5.9v-6.2l8-2.6v8.8h7.1v5.9h-7.1v14.4c0,2.6,0.7,5.1,3.8,5.1c1.4,0,2.8-0.3,3.7-0.8
				l0.2,6.4c-1.7,0.5-3.5,0.7-5.9,0.7c-6.3,0-9.8-3.9-9.8-10V699.8z"/>
			<path class="st1" d="M231.4,693.2c9.2,0,16.2,6.2,16.2,16.4c0,8.9-5.9,16-16.2,16c-10.2,0-16.1-7.1-16.1-16
				C215.3,699.3,222.3,693.2,231.4,693.2z M231.4,719.3c6.2,0,7.8-5.5,7.8-10.7c0-4.7-2.5-9.2-7.8-9.2c-5.2,0-7.7,4.6-7.7,9.2
				C223.7,713.7,225.3,719.3,231.4,719.3z"/>
			<path class="st1" d="M285.1,724.2c-3.1,0.7-6.4,1.3-9.5,1.3c-13.6,0-23-6.8-23-20.9c0-14.3,8.8-22.4,23-22.4
				c2.8,0,6.4,0.5,9.5,1.7l-0.6,7.1c-3.2-1.8-6.1-2.2-9.1-2.2c-8.6,0-14,6.6-14,15.2c0,8.5,5.3,14.9,14.2,14.9
				c3.3,0,7.2-0.7,9.2-1.7L285.1,724.2z"/>
			<path class="st1" d="M304.7,693.2c9.2,0,16.2,6.2,16.2,16.4c0,8.9-5.9,16-16.2,16c-10.2,0-16.1-7.1-16.1-16
				C288.6,699.3,295.6,693.2,304.7,693.2z M304.7,719.3c6.2,0,7.8-5.5,7.8-10.7c0-4.7-2.5-9.2-7.8-9.2c-5.2,0-7.7,4.6-7.7,9.2
				C297,713.7,298.6,719.3,304.7,719.3z"/>
			<path class="st1" d="M347.8,721.3h-0.1c-2.4,3-5.7,4.2-9.5,4.2c-9.5,0-13-7.8-13-16.3c0-8.5,3.5-16.1,13-16.1
				c4,0,6.8,1.4,9.2,4.3h0.1v-17.7h8v45h-7.8V721.3z M340.4,719.3c5.3,0,7.1-5.6,7.1-10c0-4.3-2-9.8-7.2-9.8c-5.2,0-6.7,5.7-6.7,9.8
				C333.6,713.5,335.1,719.3,340.4,719.3z"/>
			<path class="st1" d="M388.7,723c-2.9,1.6-6.3,2.5-10.6,2.5c-10.2,0-16.1-5.9-16.1-16c0-8.9,4.7-16.3,14.3-16.3
				c11.5,0,14.7,7.9,14.7,18.7h-21.4c0.4,5,3.8,7.8,8.8,7.8c3.9,0,7.3-1.4,10.3-3.1V723z M383.3,706.3c-0.2-3.9-2-7.3-6.5-7.3
				c-4.5,0-6.8,3.1-7.1,7.3H383.3z"/>
		</g>
	</g>
	<g>
		<g>
			<path class="st1" d="M358.7,556.2c-5.9,5.9-11.8,11.8-17.9,17.8c-7.7-8.6-17.4-13.3-29.2-13.1c-11.8,0.2-21.2,5.3-28.9,14.6
				c0-0.7,0-1.1,0-1.5c0-9.9,0-19.8,0-29.6c0-0.9,0.2-1.5,1.1-1.9c4.8-2.5,9.8-4.3,15.1-5.4c7-1.5,14-1.9,21.1-0.9
				c15.2,2.1,28.1,8.7,38.5,20C358.6,556.1,358.6,556.2,358.7,556.2z"/>
			<g>
				<path class="st1" d="M249.8,582c0.1,6.2,0.1,12.4,0.2,18.6c0.1,6.7,1.5,13.1,3.8,19.3c2,5.5,4.8,10.6,8.2,15.2l14.5-28.8
					c-0.5-2.9-0.7-5.9-0.8-8.8c-0.1-17.2,0-34.5,0-51.7c0-2,0-3.9,0-5.9c0-0.7-0.2-1-1-1c-1,0-2,0-3,0c-7.6,0-15.3,0-22.9,0
					c-0.5,0-1.4,0.2-1.6,0.6c-3.9,6.1-7.7,12.3-11.5,18.5c-5.9,9.4-11.7,18.9-17.6,28.3c-0.5,0.8-1.1,1.7-1.7,2.6
					c-2.1-3.3-4-6.4-5.9-9.5c-4.7-7.5-9.3-15-14-22.5c-3.5-5.7-7.1-11.4-10.6-17.1c-0.4-0.7-0.9-1-1.7-1c-8.6,0-17.2,0-25.8,0
					c-0.4,0-0.7,0.1-1.1,0.1c0,39.5,0,78.9,0,118.4c0.6,0,1.1,0,1.6,0c7.4,0,14.8,0,22.2,0c1.6,0,1.6,0,1.6-1.6c0-24.5,0-49,0-73.4
					c0-0.5,0.1-1,0.1-1.4c2.4,3.3,4.5,6.6,6.7,9.8c3.6,5.5,7.3,11,10.9,16.5c5,7.5,9.9,15,14.9,22.5c0.7,1.1,1,1.1,1.7,0
					c4.2-6.4,8.4-12.7,12.6-19.1c4.4-6.8,8.9-13.5,13.3-20.3c2.2-3.3,4.4-6.6,6.8-10.2C249.7,581,249.8,581.5,249.8,582z"/>
				<path class="st1" d="M340.8,622.2c-0.3,0.2-0.5,0.4-0.7,0.6c-6.6,7.4-14.9,11.6-24.9,12.4c-6.3,0.5-12.4-0.1-18.2-3.1
					c-5.4-2.8-10.1-6.2-13.9-10.9c-1.3-1.6-2.4-3.3-3.4-5.1l-12.6,25.1c6.4,6.7,13.9,11.8,22.5,15.2c5.1,2,10.4,3.3,15.9,3.9
					c8.8,1,17.5,0.1,25.9-2.6c4.8-1.5,9.3-3.6,13.6-6.3c5.1-3.1,9.7-6.9,13.7-11.4C352.7,634.1,346.8,628.2,340.8,622.2z"/>
			</g>
		</g>
	</g>
	<g>
		<path class="st2" d="M660.3,240.9h13.4l10,31.7h0.1l10-31.7h13.4v41.9h-8v-34.6h-0.1l-11.3,34.6h-8l-11.3-34.6l-0.1,0.1v34.4h-8
			V240.9z"/>
		<path class="st2" d="M716.4,238.6h8v7.7h-8V238.6z M716.4,251.9h8v30.9h-8V251.9z"/>
		<path class="st2" d="M735.5,257.8h-5.9v-5.9h5.9v-6.2l8-2.6v8.8h7.1v5.9h-7.1v14.4c0,2.6,0.7,5.1,3.8,5.1c1.4,0,2.8-0.3,3.7-0.8
			l0.2,6.4c-1.7,0.5-3.5,0.7-5.9,0.7c-6.3,0-9.8-3.9-9.8-10V257.8z"/>
		<path class="st2" d="M770.4,251.2c9.2,0,16.2,6.2,16.2,16.4c0,8.9-5.9,16-16.2,16c-10.2,0-16.1-7.1-16.1-16
			C754.3,257.3,761.3,251.2,770.4,251.2z M770.4,277.3c6.2,0,7.8-5.5,7.8-10.7c0-4.7-2.5-9.2-7.8-9.2c-5.2,0-7.7,4.6-7.7,9.2
			C762.7,271.7,764.3,277.3,770.4,277.3z"/>
		<path class="st2" d="M824.1,282.2c-3.1,0.7-6.4,1.3-9.5,1.3c-13.6,0-23-6.8-23-20.9c0-14.3,8.8-22.4,23-22.4
			c2.8,0,6.4,0.5,9.5,1.7l-0.6,7.1c-3.2-1.8-6.1-2.2-9.1-2.2c-8.6,0-14,6.6-14,15.2c0,8.5,5.3,14.9,14.2,14.9c3.3,0,7.2-0.7,9.2-1.7
			L824.1,282.2z"/>
		<path class="st2" d="M843.7,251.2c9.2,0,16.2,6.2,16.2,16.4c0,8.9-5.9,16-16.2,16c-10.2,0-16.1-7.1-16.1-16
			C827.6,257.3,834.6,251.2,843.7,251.2z M843.7,277.3c6.2,0,7.8-5.5,7.8-10.7c0-4.7-2.5-9.2-7.8-9.2c-5.2,0-7.7,4.6-7.7,9.2
			C836,271.7,837.6,277.3,843.7,277.3z"/>
		<path class="st2" d="M886.8,279.3h-0.1c-2.4,3-5.7,4.2-9.5,4.2c-9.5,0-13-7.8-13-16.3c0-8.5,3.5-16.1,13-16.1c4,0,6.8,1.4,9.2,4.3
			h0.1v-17.7h8v45h-7.8V279.3z M879.4,277.3c5.3,0,7.1-5.6,7.1-10c0-4.3-2-9.8-7.2-9.8c-5.2,0-6.7,5.7-6.7,9.8
			C872.6,271.5,874.1,277.3,879.4,277.3z"/>
		<path class="st2" d="M927.7,281c-2.9,1.6-6.3,2.5-10.6,2.5c-10.2,0-16.1-5.9-16.1-16c0-8.9,4.7-16.3,14.3-16.3
			c11.5,0,14.7,7.9,14.7,18.7h-21.4c0.4,5,3.8,7.8,8.8,7.8c3.9,0,7.3-1.4,10.3-3.1V281z M922.3,264.3c-0.2-3.9-2-7.3-6.5-7.3
			c-4.5,0-6.8,3.1-7.1,7.3H922.3z"/>
	</g>
	<g>
		<path class="st2" d="M897.7,114.2c-5.9,5.9-11.8,11.8-17.9,17.8c-7.7-8.6-17.4-13.3-29.2-13.1c-11.8,0.2-21.2,5.3-28.9,14.6
			c0-0.7,0-1.1,0-1.5c0-9.9,0-19.8,0-29.6c0-0.9,0.2-1.5,1.1-1.9c4.8-2.5,9.8-4.3,15.1-5.4c7-1.5,14-1.9,21.1-0.9
			c15.2,2.1,28.1,8.7,38.5,20C897.6,114.1,897.6,114.2,897.7,114.2z"/>
		<g>
			<path class="st2" d="M788.8,140c0.1,6.2,0.1,12.4,0.2,18.6c0.1,6.7,1.5,13.1,3.8,19.3c2,5.5,4.8,10.6,8.2,15.2l14.5-28.8
				c-0.5-2.9-0.7-5.9-0.8-8.8c-0.1-17.2,0-34.5,0-51.7c0-2,0-3.9,0-5.9c0-0.7-0.2-1-1-1c-1,0-2,0-3,0c-7.6,0-15.3,0-22.9,0
				c-0.5,0-1.4,0.2-1.6,0.6c-3.9,6.1-7.7,12.3-11.5,18.5c-5.9,9.4-11.7,18.9-17.6,28.3c-0.5,0.8-1.1,1.7-1.7,2.6
				c-2.1-3.3-4-6.4-5.9-9.5c-4.7-7.5-9.3-15-14-22.5c-3.5-5.7-7.1-11.4-10.6-17.1c-0.4-0.7-0.9-1-1.7-1c-8.6,0-17.2,0-25.8,0
				c-0.4,0-0.7,0.1-1.1,0.1c0,39.5,0,78.9,0,118.4c0.6,0,1.1,0,1.6,0c7.4,0,14.8,0,22.2,0c1.6,0,1.6,0,1.6-1.6c0-24.5,0-49,0-73.4
				c0-0.5,0.1-1,0.1-1.4c2.4,3.3,4.5,6.6,6.7,9.8c3.6,5.5,7.3,11,10.9,16.5c5,7.5,9.9,15,14.9,22.5c0.7,1.1,1,1.1,1.7,0
				c4.2-6.4,8.4-12.7,12.6-19.1c4.4-6.8,8.9-13.5,13.3-20.3c2.2-3.3,4.4-6.6,6.8-10.2C788.7,139,788.8,139.5,788.8,140z"/>
			<path class="st2" d="M879.8,180.2c-0.3,0.2-0.5,0.4-0.7,0.6c-6.6,7.4-14.9,11.6-24.9,12.4c-6.3,0.5-12.4-0.1-18.2-3.1
				c-5.4-2.8-10.1-6.2-13.9-10.9c-1.3-1.6-2.4-3.3-3.4-5.1l-12.6,25.1c6.4,6.7,13.9,11.8,22.5,15.2c5.1,2,10.4,3.3,15.9,3.9
				c8.8,1,17.5,0.1,25.9-2.6c4.8-1.5,9.3-3.6,13.6-6.3c5.1-3.1,9.7-6.9,13.7-11.4C891.7,192.1,885.8,186.2,879.8,180.2z"/>
		</g>
	</g>
	<g>
		<path class="st1" d="M121.3,240.9h13.4l10,31.7h0.1l10-31.7h13.4v41.9h-8v-34.6h-0.1l-11.3,34.6h-8l-11.3-34.6l-0.1,0.1v34.4h-8
			V240.9z"/>
		<path class="st1" d="M177.4,238.6h8v7.7h-8V238.6z M177.4,251.9h8v30.9h-8V251.9z"/>
		<path class="st1" d="M196.5,257.8h-5.9v-5.9h5.9v-6.2l8-2.6v8.8h7.1v5.9h-7.1v14.4c0,2.6,0.7,5.1,3.8,5.1c1.4,0,2.8-0.3,3.7-0.8
			l0.2,6.4c-1.7,0.5-3.5,0.7-5.9,0.7c-6.3,0-9.8-3.9-9.8-10V257.8z"/>
		<path class="st1" d="M231.4,251.2c9.2,0,16.2,6.2,16.2,16.4c0,8.9-5.9,16-16.2,16c-10.2,0-16.1-7.1-16.1-16
			C215.3,257.3,222.3,251.2,231.4,251.2z M231.4,277.3c6.2,0,7.8-5.5,7.8-10.7c0-4.7-2.5-9.2-7.8-9.2c-5.2,0-7.7,4.6-7.7,9.2
			C223.7,271.7,225.3,277.3,231.4,277.3z"/>
		<path class="st0" d="M285.1,282.2c-3.1,0.7-6.4,1.3-9.5,1.3c-13.6,0-23-6.8-23-20.9c0-14.3,8.8-22.4,23-22.4
			c2.8,0,6.4,0.5,9.5,1.7l-0.6,7.1c-3.2-1.8-6.1-2.2-9.1-2.2c-8.6,0-14,6.6-14,15.2c0,8.5,5.3,14.9,14.2,14.9c3.3,0,7.2-0.7,9.2-1.7
			L285.1,282.2z"/>
		<path class="st0" d="M304.7,251.2c9.2,0,16.2,6.2,16.2,16.4c0,8.9-5.9,16-16.2,16c-10.2,0-16.1-7.1-16.1-16
			C288.6,257.3,295.6,251.2,304.7,251.2z M304.7,277.3c6.2,0,7.8-5.5,7.8-10.7c0-4.7-2.5-9.2-7.8-9.2c-5.2,0-7.7,4.6-7.7,9.2
			C297,271.7,298.6,277.3,304.7,277.3z"/>
		<path class="st0" d="M347.8,279.3h-0.1c-2.4,3-5.7,4.2-9.5,4.2c-9.5,0-13-7.8-13-16.3c0-8.5,3.5-16.1,13-16.1c4,0,6.8,1.4,9.2,4.3
			h0.1v-17.7h8v45h-7.8V279.3z M340.4,277.3c5.3,0,7.1-5.6,7.1-10c0-4.3-2-9.8-7.2-9.8c-5.2,0-6.7,5.7-6.7,9.8
			C333.6,271.5,335.1,277.3,340.4,277.3z"/>
		<path class="st0" d="M388.7,281c-2.9,1.6-6.3,2.5-10.6,2.5c-10.2,0-16.1-5.9-16.1-16c0-8.9,4.7-16.3,14.3-16.3
			c11.5,0,14.7,7.9,14.7,18.7h-21.4c0.4,5,3.8,7.8,8.8,7.8c3.9,0,7.3-1.4,10.3-3.1V281z M383.3,264.3c-0.2-3.9-2-7.3-6.5-7.3
			c-4.5,0-6.8,3.1-7.1,7.3H383.3z"/>
	</g>
	<g>
		<path class="st1" d="M358.7,114.2c-5.9,5.9-11.8,11.8-17.9,17.8c-7.7-8.6-17.4-13.3-29.2-13.1c-11.8,0.2-21.2,5.3-28.9,14.6
			c0-0.7,0-1.1,0-1.5c0-9.9,0-19.8,0-29.6c0-0.9,0.2-1.5,1.1-1.9c4.8-2.5,9.8-4.3,15.1-5.4c7-1.5,14-1.9,21.1-0.9
			c15.2,2.1,28.1,8.7,38.5,20C358.6,114.1,358.6,114.2,358.7,114.2z"/>
		<g>
			<path class="st0" d="M249.8,140c0.1,6.2,0.1,12.4,0.2,18.6c0.1,6.7,1.5,13.1,3.8,19.3c2,5.5,4.8,10.6,8.2,15.2l14.5-28.8
				c-0.5-2.9-0.7-5.9-0.8-8.8c-0.1-17.2,0-34.5,0-51.7c0-2,0-3.9,0-5.9c0-0.7-0.2-1-1-1c-1,0-2,0-3,0c-7.6,0-15.3,0-22.9,0
				c-0.5,0-1.4,0.2-1.6,0.6c-3.9,6.1-7.7,12.3-11.5,18.5c-5.9,9.4-11.7,18.9-17.6,28.3c-0.5,0.8-1.1,1.7-1.7,2.6
				c-2.1-3.3-4-6.4-5.9-9.5c-4.7-7.5-9.3-15-14-22.5c-3.5-5.7-7.1-11.4-10.6-17.1c-0.4-0.7-0.9-1-1.7-1c-8.6,0-17.2,0-25.8,0
				c-0.4,0-0.7,0.1-1.1,0.1c0,39.5,0,78.9,0,118.4c0.6,0,1.1,0,1.6,0c7.4,0,14.8,0,22.2,0c1.6,0,1.6,0,1.6-1.6c0-24.5,0-49,0-73.4
				c0-0.5,0.1-1,0.1-1.4c2.4,3.3,4.5,6.6,6.7,9.8c3.6,5.5,7.3,11,10.9,16.5c5,7.5,9.9,15,14.9,22.5c0.7,1.1,1,1.1,1.7,0
				c4.2-6.4,8.4-12.7,12.6-19.1c4.4-6.8,8.9-13.5,13.3-20.3c2.2-3.3,4.4-6.6,6.8-10.2C249.7,139,249.8,139.5,249.8,140z"/>
			<path class="st1" d="M340.8,180.2c-0.3,0.2-0.5,0.4-0.7,0.6c-6.6,7.4-14.9,11.6-24.9,12.4c-6.3,0.5-12.4-0.1-18.2-3.1
				c-5.4-2.8-10.1-6.2-13.9-10.9c-1.3-1.6-2.4-3.3-3.4-5.1l-12.6,25.1c6.4,6.7,13.9,11.8,22.5,15.2c5.1,2,10.4,3.3,15.9,3.9
				c8.8,1,17.5,0.1,25.9-2.6c4.8-1.5,9.3-3.6,13.6-6.3c5.1-3.1,9.7-6.9,13.7-11.4C352.7,192.1,346.8,186.2,340.8,180.2z"/>
		</g>
	</g>
</g>
</svg>
